<svg width="64" height="333" viewBox="0 0 64 333" fill="none" xmlns="http://www.w3.org/2000/svg">
<path d="M47.1557 238.525C47.2437 240.017 47.6329 242.872 48.7941 243.223C49.9431 243.571 50.4683 242.796 50.4683 242.796C50.4683 242.796 50.753 245.217 52.249 245.572C54.0985 246.012 54.6629 244.398 54.6629 244.398C54.6629 244.398 55.2272 246.012 57.0762 245.572C58.5723 245.217 58.8574 242.796 58.8574 242.796C58.8574 242.796 59.3822 243.571 60.5316 243.223C61.6928 242.872 62.082 240.017 62.17 238.525C62.2673 236.881 62.5264 216.96 62.5264 216.96L46.3975 216.96C46.3975 216.96 47.0584 236.881 47.1557 238.525Z" fill="#FAA419"/>
<path d="M62.5264 216.96L46.3975 216.96L46.3975 180.121L62.5264 180.121L62.5264 216.96Z" fill="#FAA419"/>
<path d="M62.499 217.521C62.4914 218.099 62.4822 218.782 62.4716 219.538C61.871 219.477 61.2906 219.457 60.7823 219.456C60.7776 219.456 60.7734 219.456 60.7692 219.456C57.9696 219.456 55.3886 220.598 52.688 221.206C52.052 221.349 49.1197 221.848 46.6107 221.889C46.5639 220.497 46.521 219.224 46.4864 218.188C47.2732 218.081 48.0419 218.058 48.6328 218.058C49.0371 218.058 49.4411 218.058 49.845 218.058C50.6528 218.058 51.4606 218.058 52.2685 218.058C53.9561 218.058 55.6998 218.207 57.4204 218.207C58.4952 218.207 59.5613 218.149 60.5982 217.96C61.2498 217.841 61.8795 217.683 62.499 217.521Z" fill="#DC762B"/>
<path d="M62.3193 229.916C62.3 231.118 62.281 232.254 62.2625 233.255C60.6889 233.607 59.12 234.019 57.5178 234.208C55.4865 234.446 53.4412 234.66 51.3917 234.66C50.9398 234.66 50.4874 234.65 50.0355 234.627C49.1775 234.584 48.0884 234.443 47.0379 234.163C46.9983 233.081 46.9516 231.776 46.9023 230.365C48.7117 230.079 50.7018 230.01 51.2249 229.986C51.9772 229.951 52.7328 229.938 53.4905 229.938C54.4327 229.938 55.3778 229.958 56.3234 229.977C57.2693 229.997 58.2153 230.016 59.1588 230.016C60.2168 230.016 61.2714 229.992 62.3193 229.916Z" fill="#DC762B"/>
<path d="M51.4065 222.269C54.4677 222.269 57.7761 223.068 60.2948 223.278C60.5782 223.301 61.4189 223.372 62.418 223.394C62.4036 224.376 62.3889 225.392 62.3737 226.408C61.074 226.241 59.7363 226.181 58.386 226.181C55.6432 226.181 52.8487 226.429 50.2163 226.544C49.7239 226.566 49.2214 226.602 48.7286 226.602C48.0329 226.602 47.3573 226.53 46.7592 226.24C46.7247 225.239 46.6905 224.24 46.6581 223.276C48.0396 222.521 49.6839 222.268 51.4065 222.269Z" fill="#DC762B"/>
<path d="M1.90765 239.408C1.98354 240.694 2.31903 243.155 3.32007 243.458C4.31057 243.758 4.76334 243.09 4.76334 243.09C4.76334 243.09 5.00879 245.176 6.29848 245.483C7.8928 245.863 8.37934 244.47 8.37934 244.47C8.37934 244.47 8.86588 245.863 10.4598 245.483C11.7495 245.176 11.9953 243.09 11.9953 243.09C11.9953 243.09 12.4477 243.758 13.4386 243.458C14.4396 243.155 14.7751 240.694 14.851 239.408C14.9349 237.991 15.1582 220.817 15.1582 220.817L1.2541 220.817C1.2541 220.817 1.82378 237.991 1.90765 239.408Z" fill="#FAA419"/>
<path d="M15.1582 220.817L1.2541 220.817L1.2541 194.863L15.1582 194.863L15.1582 220.817Z" fill="#FAA419"/>
<path d="M15.1348 221.302C15.1282 221.8 15.1202 222.388 15.1112 223.041C14.5934 222.988 14.0931 222.971 13.6548 222.97C13.6508 222.97 13.6472 222.97 13.6436 222.97C11.2301 222.97 8.89548 220.344 6.56736 220.868C6.0191 220.991 3.49127 221.421 1.32836 221.456C1.28806 220.256 1.25102 219.159 1.22125 218.266C1.8995 218.173 2.56213 218.154 3.07154 218.154C3.42011 218.154 3.76831 218.154 4.11652 218.154C4.81292 218.154 5.50932 218.154 6.20573 218.154C7.66062 218.154 8.92544 218.398 10.496 219.216C11.7556 219.873 12.4647 221.031 13.3587 220.868C13.9204 220.765 14.6007 221.442 15.1348 221.302Z" fill="#DC762B"/>
<path d="M14.9795 231.987C14.9628 233.023 14.9465 234.003 14.9305 234.866C13.574 235.169 12.2215 235.524 10.8403 235.687C9.08911 235.892 7.32595 236.077 5.55916 236.077C5.16957 236.077 4.77961 236.068 4.39002 236.048C3.65041 236.011 2.71146 235.889 1.80592 235.649C1.77179 234.715 1.73148 233.59 1.689 232.374C3.24883 232.128 4.96443 232.068 5.41538 232.047C6.06386 232.017 6.71524 232.006 7.36844 232.006C8.18066 232.006 8.99543 232.023 9.81057 232.04C10.6261 232.056 11.4416 232.073 12.2549 232.073C13.167 232.073 14.0761 232.052 14.9795 231.987Z" fill="#DC762B"/>
<path d="M5.57285 225.395C8.21177 225.395 11.0638 226.084 13.2351 226.265C13.4795 226.285 14.2042 226.345 15.0654 226.365C15.0531 227.211 15.0404 228.087 15.0273 228.963C13.9068 228.819 12.7537 228.767 11.5896 228.767C9.22516 228.767 6.81606 228.982 4.54676 229.081C4.12231 229.099 3.68915 229.131 3.26434 229.131C2.66451 229.131 2.08212 229.068 1.56654 228.818C1.53676 227.955 1.50735 227.094 1.47939 226.263C2.67032 225.613 4.08782 225.394 5.57285 225.395Z" fill="#DC762B"/>
<path d="M64 45.3862L64 193.058C64 226.611 0.105297 225.138 3.55016e-05 193.058L0.105305 45.8069L64 45.3862Z" fill="#FAA419"/>
<path d="M31.8616 69.1166C45.0487 69.0226 55.7891 79.6867 55.7891 92.8741L55.7891 187.767C55.7891 214.764 8.28838 213.579 8.21013 187.767L8.27282 92.8584C8.28144 79.8093 18.8129 69.2096 31.8616 69.1166Z" fill="#EFCFAA"/>
<path d="M0.0546875 39.2633C0.81157 33.1154 1.536 29.7867 4.00381 24.3141C2.50916 12.857 1.92629 5.64912 3.4722 1.16938C7.06819 0.0421391 14.5272 4.75279 21.7748 9.25778C22.3065 8.15071 22.4856 6.32424 22.99 6.63578C23.0126 6.64978 23.2025 7.13051 23.41 7.66035C23.4864 7.05333 23.9156 6.25946 24.6607 4.8118C25.5721 2.76292 26.3315 2.3835 27.3188 1.70054C27.5466 5.03945 31.4958 10.0478 33.926 12.0208C33.0906 10.4272 33.0147 6.17772 36.8878 4.05296C37.4194 8.22659 37.2676 8.45425 38.027 10.0478L40.761 10.1996C50.7681 3.36266 56.4148 0.777781 60.3547 1.01761C62.5088 2.72778 61.6688 10.7077 60.3547 24.3141C62.2123 29.3444 63.4438 34.9379 64.0001 39.2633C59.2915 49.5836 46.2199 54.4148 32.559 54.5919C18.5237 54.7739 5.29494 50.1148 0.0546875 39.2633Z" fill="#FAA419"/>
<path d="M24.7014 14.8341C21.9183 13.6602 20.2943 11.0471 23.0336 6.3089C23.0336 7.19463 23.3113 7.30535 23.7148 8.41252M30.0381 13.6162C26.4867 13.3662 24.992 11.917 23.7148 8.41252M23.7148 8.41252C23.2685 7.08392 25.4796 2.32311 27.3697 1.5481C26.8463 3.4773 31.2706 10.367 34.0406 12.0662C32.8826 8.34983 33.6883 6.63032 36.8201 3.9839C36.8036 9.41111 38.9326 12.2876 41.8233 15.0555" stroke="#DC762B" stroke-width="0.648872" stroke-linecap="round"/>
<ellipse cx="48.6594" cy="34.8617" rx="8.73363" ry="8.7267" fill="white"/>
<path fill-rule="evenodd" clip-rule="evenodd" d="M47.7738 39.8022C50.8217 39.8022 53.2926 37.3333 53.2926 34.2877C53.2926 31.2421 50.8217 28.7732 47.7738 28.7732C46.8756 28.7732 46.0275 28.9876 45.278 29.368C45.8133 29.7167 46.1671 30.3202 46.1671 31.0064C46.1671 32.0858 45.2913 32.9609 44.211 32.9609C43.5813 32.9609 43.0211 32.6636 42.6634 32.2018C42.4 32.8452 42.2549 33.5495 42.2549 34.2877C42.2549 37.3333 44.7258 39.8022 47.7738 39.8022Z" fill="#FAA419"/>
<ellipse cx="15.3957" cy="34.8617" rx="8.73363" ry="8.7267" fill="white"/>
<path d="M10.283 33.9361C10.1168 36.9332 12.6837 39.4841 16.0165 39.6336C19.3493 39.7831 22.1859 37.4747 22.3521 34.4776C22.4011 33.5942 22.2127 32.7495 21.8371 31.9937C21.4264 32.5032 20.7464 32.8217 19.9954 32.788C18.8142 32.735 17.9043 31.8309 17.9633 30.7686C17.9976 30.1494 18.3536 29.6131 18.8785 29.2839C18.1888 28.9935 17.4262 28.8163 16.6186 28.7801C13.2858 28.6305 10.4493 30.939 10.283 33.9361Z" fill="#FAA419"/>
<path d="M34.6843 38.3528L29.3682 38.3528L32.0262 41.0087L34.6843 38.3528Z" fill="white"/>
<path d="M32.0269 41.0084C32.0269 47.7621 40.0011 47.6862 40.0011 43.7402M32.0269 41.0084C32.0269 47.7621 24.0527 47.6103 24.0527 43.7402M32.0269 41.0084V39.8701" stroke="white" stroke-width="0.485497" stroke-linecap="round"/>
<path d="M47.6729 11.5649C51.1438 13.1584 53.0306 14.6228 56.3305 17.8632C56.531 14.2731 56.6208 12.2645 55.2673 8.98478C52.6681 8.84672 50.9696 9.52188 47.6729 11.5649Z" fill="white"/>
<path d="M16.5342 11.5814C12.8682 13.2669 10.8755 14.816 7.39025 18.2436C7.17849 14.446 7.08369 12.3214 8.51319 8.85224C11.2584 8.70619 13.0523 9.42036 16.5342 11.5814Z" fill="white"/>
<path d="M32.559 54.5928C46.2199 54.4157 59.2915 49.5844 64.0001 39.2642L64.0001 45.7902C59.2915 56.1105 46.2199 60.9418 32.559 61.1188C18.5237 61.3008 5.29494 56.6417 0.0546875 45.7902L0.0546875 39.2642C5.29494 50.1156 18.5237 54.7747 32.559 54.5928Z" fill="#D72F19"/>
<path d="M32.559 50.853C32.559 50.853 27.8034 54.5144 25.4961 54.2581L25.4961 60.7841C27.8034 61.0405 32.559 64.7138 32.559 64.7138C32.559 64.7138 36.2768 60.9838 38.0995 60.7841L38.0995 54.2581C36.2768 54.4578 32.559 50.853 32.559 50.853Z" fill="#FEC568"/>
<path d="M38.0357 246.174C38.736 233.482 33.9305 213.884 33.9305 213.884L25.0884 213.884C25.0884 213.884 29.8939 233.482 29.1936 246.174C28.5896 257.122 23.6875 262.668 23.2989 273.626C22.8332 286.759 30.0137 293.642 29.1936 306.758C28.7015 314.629 25.0884 326.531 25.0884 326.531C23.2989 335.051 30.8779 335.261 33.9305 326.531C33.9305 326.531 37.5436 314.629 38.0357 306.758C38.8558 293.642 31.6753 286.759 32.141 273.626C32.5296 262.668 37.4317 257.122 38.0357 246.174Z" fill="#FAA419"/>
</svg>
