<svg width="16" height="39" viewBox="0 0 16 39" fill="none" xmlns="http://www.w3.org/2000/svg">
<path d="M3.65879 33.2899C3.83327 34.3357 4.32271 36.3192 5.16809 36.48C6.00457 36.639 6.31657 36.0528 6.31657 36.0528C6.31657 36.0528 6.69965 37.7382 7.78145 37.8765C9.11882 38.0478 9.3952 36.8666 9.3952 36.8666C9.3952 36.8666 9.91484 37.963 11.1856 37.5135C12.2138 37.1502 12.2326 35.4219 12.2326 35.4219C12.2326 35.4219 12.6611 35.9291 13.4454 35.5973C14.2378 35.2618 14.2973 33.2198 14.2469 32.1607C14.1917 30.9939 12.8738 16.9262 12.8738 16.9262L1.787 18.2644C1.787 18.2644 3.46632 32.1377 3.65879 33.2899Z" fill="#857965"/>
<path d="M12.8738 16.9262L1.787 18.2644L0.661254 5.58892L11.6629 5.58889L12.8738 16.9262Z" fill="#857965"/>
<path d="M11.6629 5.58889L0.661254 5.58892C0.661212 4.24667 0.651426 2.11945 4.62501 1.83757C7.73463 1.61698 11.4789 2.99958 11.6629 5.58889Z" fill="#857965"/>
<path d="M4.35108 32.4251C4.52557 33.4709 5.015 35.4544 5.86039 35.6152C6.69687 35.7742 7.00886 35.188 7.00886 35.188C7.00886 35.188 7.39195 36.8734 8.47375 37.0117C9.81112 37.183 10.0875 36.0018 10.0875 36.0018C10.0875 36.0018 10.6071 37.0982 11.8779 36.6487C12.9061 36.2854 12.9249 34.5571 12.9249 34.5571C12.9249 34.5571 13.3534 35.0643 14.1377 34.7325C14.9301 34.397 14.9896 32.355 14.9392 31.2959C14.884 30.1291 13.5661 16.0614 13.5661 16.0614L2.19208 17.2743C2.19208 17.2743 4.15862 31.2729 4.35108 32.4251Z" fill="#FAA419"/>
<path d="M13.5661 16.0614L2.19208 17.2743L0.981136 5.93703L12.3552 4.72409L13.5661 16.0614Z" fill="#FAA419"/>
<path d="M12.3552 4.72409L0.981136 5.93703C0.823684 3.72046 1.34372 1.25465 5.3173 0.97277C8.42693 0.752177 12.1712 2.13478 12.3552 4.72409Z" fill="#FAA419"/>
<path d="M5.3173 0.97277C8.42693 0.752176 12.1712 2.13478 12.3552 4.72408C10.8524 4.45481 7.50599 3.97512 6.14318 4.21059C4.78038 4.44606 2.13398 5.45967 0.981137 5.93703C0.823684 3.72046 1.34372 1.25465 5.3173 0.97277Z" fill="#DC762B"/>
<path d="M7.28608 7.73459C8.2004 7.5663 11.3732 8.71627 12.8453 9.31228L13.0475 11.2055C11.5229 11.2055 8.18077 11.1003 7.00886 10.6796C5.83695 10.2589 2.83979 10.5043 1.4877 10.6796L1.34165 9.31228C2.94216 8.85651 6.37176 7.90288 7.28608 7.73459Z" fill="#DC762B"/>
<path d="M13.5895 16.4598C13.6277 16.8681 13.6726 17.3499 13.7221 17.8843C13.2939 17.8862 12.8832 17.9159 12.5246 17.9535C12.5213 17.9538 12.5184 17.9542 12.5154 17.9545C10.5411 18.165 8.40181 16.2201 6.54312 16.8521C6.1054 17.0008 4.07515 17.5733 2.30885 17.7905C2.17102 16.8123 2.04486 15.918 1.94246 15.1899C2.48921 15.0551 3.02959 14.9816 3.4463 14.9371C3.73144 14.9067 4.01629 14.8763 4.30113 14.846C4.87081 14.7852 5.4405 14.7245 6.01018 14.6637C7.20034 14.5368 8.25632 14.626 9.61264 15.1585C10.7003 15.5856 11.3816 16.4709 12.0986 16.2596C12.5492 16.1267 13.1648 16.6206 13.5895 16.4598Z" fill="#DC762B"/>
<path d="M14.3955 25.2136C14.4724 26.0627 14.5446 26.8654 14.6069 27.5729C13.5238 27.9393 12.4485 28.3482 11.3328 28.6013C9.91821 28.9224 8.49202 29.2272 7.04672 29.3814C6.72802 29.4153 6.40826 29.4422 6.08782 29.4599C5.47952 29.4939 4.70082 29.4763 3.939 29.3583C3.82952 28.5976 3.69827 27.6811 3.55727 26.69C4.81174 26.3524 6.20993 26.1538 6.57702 26.0975C7.10483 26.016 7.63676 25.9506 8.1711 25.8936C8.83553 25.8228 9.5035 25.7653 10.1718 25.7079C10.8403 25.6504 11.5089 25.5929 12.1742 25.5219C12.9203 25.4424 13.6622 25.3459 14.3955 25.2136Z" fill="#DC762B"/>
<path d="M6.12438 20.6413C8.28311 20.4111 10.6764 20.7262 12.4684 20.6846C12.6701 20.6799 13.2682 20.6662 13.9744 20.6071C14.0383 21.3003 14.1044 22.0178 14.1702 22.7354C13.2411 22.7159 12.2932 22.7741 11.341 22.8756C9.40681 23.0819 7.45479 23.4672 5.60707 23.7462C5.26147 23.7983 4.90989 23.8619 4.56238 23.899C4.0717 23.9513 3.5898 23.9508 3.14619 23.7913C3.04645 23.0881 2.94714 22.3861 2.85164 21.7086C3.76906 21.0729 4.90954 20.7706 6.12438 20.6413Z" fill="#DC762B"/>
</svg>
