<svg width="421" height="398" viewBox="0 0 421 398" fill="none" xmlns="http://www.w3.org/2000/svg">
<path d="M0 253.5C4.98312 212.992 9.75258 191.059 26 155C16.1596 79.5094 12.3221 32.0171 22.5 2.50018C46.1751 -4.92719 95.2833 26.1112 143 55.7945C146.5 48.5 147.68 36.4654 151 38.5182C151.149 38.6104 152.399 41.7779 153.765 45.269C154.269 41.2693 157.094 36.0386 162 26.5C168 13 173 10.5 179.5 6C181 28 207 61 223 74C217.5 63.4998 217 35.5 242.5 21.5C246 49 245 50.5 250 61L268 62.0002C333.884 16.9517 371.06 -0.0800631 397 1.50018C411.182 12.7684 405.652 65.3478 397 155C409.23 188.145 417.338 225 421 253.5C390 321.5 303.94 353.333 214 354.5C121.595 355.699 34.5005 325 0 253.5Z" fill="#FAA419"/>
<path d="M162.273 92.541C143.951 84.8063 133.258 67.5888 151.293 36.3689C151.293 42.2049 153.121 42.9344 155.778 50.2295M197.409 84.5164C174.027 82.8693 164.187 73.3207 155.778 50.2295M155.778 50.2295C152.84 41.4754 167.397 10.1066 179.841 5C176.395 17.7115 205.523 63.1079 223.76 74.3036C216.137 49.8165 221.441 38.4866 242.06 21.0495C241.951 56.8092 255.968 75.7623 275 94" stroke="#DC762B" stroke-width="5" stroke-linecap="round"/>
<circle cx="320" cy="224.5" r="57.5" fill="white"/>
<path fill-rule="evenodd" clip-rule="evenodd" d="M311 265C332.816 265 350.5 247.315 350.5 225.5C350.5 203.685 332.816 186 311 186C304.57 186 298.499 187.536 293.134 190.262C296.967 192.76 299.5 197.084 299.5 202C299.5 209.732 293.232 216 285.5 216C280.993 216 276.984 213.87 274.423 210.562C272.539 215.17 271.5 220.214 271.5 225.5C271.5 247.315 289.185 265 311 265Z" fill="#FAA419"/>
<circle cx="101" cy="224.5" r="57.5" fill="white"/>
<path d="M70.5495 223.532C69.4625 245.32 86.2441 263.864 108.032 264.951C129.82 266.038 148.364 249.256 149.451 227.468C149.772 221.046 148.54 214.906 146.085 209.411C143.399 213.115 138.954 215.43 134.044 215.185C126.322 214.8 120.374 208.227 120.759 200.505C120.984 196.003 123.311 192.105 126.743 189.712C122.234 187.601 117.248 186.312 111.969 186.049C90.1804 184.962 71.6364 201.744 70.5495 223.532Z" fill="#FAA419"/>
<path d="M228 247.5H193L210.5 265L228 247.5Z" fill="white"/>
<path d="M210.5 265C210.5 309.5 263 309 263 283M210.5 265C210.5 309.5 158 308.5 158 283M210.5 265V257.5" stroke="white" stroke-width="5" stroke-linecap="round"/>
<path d="M313.5 71.0004C336.353 81.5001 348.774 91.1494 370.5 112.5C371.821 88.8448 372.411 75.6104 363.5 54.0004C346.388 53.0907 335.206 57.5393 313.5 71.0004Z" fill="white"/>
<path d="M108.5 71.1024C84.3649 82.2087 71.2455 92.4154 48.2992 115C46.905 89.9778 46.2809 75.9787 55.6923 53.1203C73.7659 52.158 85.5764 56.8636 108.5 71.1024Z" fill="white"/>
<path d="M214 354.5C303.94 353.333 390 321.5 421 253.5V296.5C390 364.5 303.94 396.333 214 397.5C121.595 398.699 34.5005 368 0 296.5V253.5C34.5005 325 121.595 355.699 214 354.5Z" fill="#E74933"/>
<path d="M214 354.5C198.268 354.704 182.691 353.984 167.5 352.295V395.295C182.691 396.984 198.268 397.704 214 397.5C226.275 397.341 238.477 396.61 250.477 395.295V352.295C238.477 353.61 226.275 354.341 214 354.5Z" fill="#EECD97"/>
</svg>
