<svg width="17" height="39" viewBox="0 0 17 39" fill="none" xmlns="http://www.w3.org/2000/svg">
<path d="M5.08741 32.4251C5.2619 33.4709 5.75133 35.4544 6.59671 35.6152C7.4332 35.7742 7.74519 35.188 7.74519 35.188C7.74519 35.188 8.12828 36.8734 9.21008 37.0117C10.5474 37.183 10.8238 36.0018 10.8238 36.0018C10.8238 36.0018 11.3435 37.0982 12.6142 36.6487C13.6424 36.2854 13.6612 34.5571 13.6612 34.5571C13.6612 34.5571 14.0897 35.0643 14.874 34.7325C15.6664 34.397 15.7259 32.355 15.6756 31.2959C15.6203 30.1291 14.3025 16.0614 14.3025 16.0614L2.92841 17.2743C2.92841 17.2743 4.89495 31.2729 5.08741 32.4251Z" fill="#FAA419"/>
<path d="M14.3025 16.0614L2.92841 17.2743L1.71746 5.93703L13.0915 4.72409L14.3025 16.0614Z" fill="#FAA419"/>
<path d="M13.0915 4.72409L1.71746 5.93703C1.56001 3.72046 2.08005 1.25465 6.05363 0.97277C9.16326 0.752177 12.9075 2.13478 13.0915 4.72409Z" fill="#FAA419"/>
<path d="M4.39414 33.2899C4.56862 34.3357 5.05806 36.3192 5.90344 36.48C6.73993 36.639 7.05192 36.0528 7.05192 36.0528C7.05192 36.0528 7.435 37.7382 8.5168 37.8765C9.85417 38.0478 10.1306 36.8666 10.1306 36.8666C10.1306 36.8666 10.6502 37.963 11.9209 37.5135C12.9492 37.1502 12.9679 35.4219 12.9679 35.4219C12.9679 35.4219 13.3964 35.9291 14.1808 35.5973C14.9732 35.2618 15.0326 33.2198 14.9823 32.1607C14.927 30.9939 13.6092 16.9262 13.6092 16.9262L2.52235 18.2644C2.52235 18.2644 4.20168 32.1377 4.39414 33.2899Z" fill="#857965"/>
<path d="M13.6092 16.9262L2.52235 18.2644L1.39661 5.58892L12.3982 5.58889L13.6092 16.9262Z" fill="#857965"/>
<path d="M12.3982 5.58889L1.39661 5.58892C1.39656 4.24667 1.38678 2.11945 5.36036 1.83757C8.46999 1.61698 12.2142 2.99958 12.3982 5.58889Z" fill="#857965"/>
<path fill-rule="evenodd" clip-rule="evenodd" d="M6.59671 35.6152C5.75133 35.4544 5.2619 33.4709 5.08741 32.4251C4.89495 31.2729 2.92841 17.2743 2.92841 17.2743L1.71746 5.93703C2.87031 5.45967 5.5167 4.44606 6.87951 4.21059C8.24232 3.97512 11.5887 4.45481 13.0915 4.72409L14.3025 16.0614C14.3025 16.0614 15.6203 30.1291 15.6756 31.2959C15.7259 32.355 15.6664 34.397 14.874 34.7325C14.0897 35.0643 13.6612 34.5571 13.6612 34.5571C13.6612 34.5571 13.6424 36.2854 12.6142 36.6487C11.3435 37.0982 10.8238 36.0018 10.8238 36.0018C10.8238 36.0018 10.5474 37.183 9.21008 37.0117C8.12828 36.8734 7.74519 35.188 7.74519 35.188C7.74519 35.188 7.4332 35.7742 6.59671 35.6152Z" fill="#FAA419"/>
<path d="M6.05363 0.97277C9.16326 0.752177 12.9075 2.13478 13.0915 4.72409C11.5887 4.45481 8.24232 3.97512 6.87951 4.21059C5.5167 4.44606 2.87031 5.45967 1.71746 5.93703C1.56001 3.72046 2.08005 1.25465 6.05363 0.97277Z" fill="#DC762B"/>
<path d="M14.3258 16.4598C14.364 16.8681 14.4089 17.3499 14.4585 17.8843C14.0303 17.8862 13.6195 17.9159 13.2609 17.9535C13.2577 17.9538 13.2547 17.9542 13.2517 17.9545C11.2774 18.165 9.13813 16.2201 7.27945 16.8521C6.84173 17.0008 4.81148 17.5733 3.04518 17.7905C2.90734 16.8123 2.78119 15.918 2.67879 15.1899C3.22554 15.0551 3.76592 14.9816 4.18263 14.9371C4.46777 14.9067 4.75262 14.8763 5.03746 14.846C5.60714 14.7852 6.17682 14.7245 6.74651 14.6637C7.93666 14.5368 8.99264 14.626 10.349 15.1585C11.4366 15.5856 12.1179 16.4709 12.835 16.2596C13.2855 16.1267 13.9011 16.6206 14.3258 16.4598Z" fill="#DC762B"/>
<path d="M15.1318 25.2139C15.2087 26.0629 15.2809 26.8657 15.3433 27.5731C14.2601 27.9396 13.1848 28.3484 12.0691 28.6016C10.6545 28.9226 9.22835 29.2275 7.78305 29.3816C7.46435 29.4156 7.14459 29.4425 6.82415 29.4601C6.21585 29.4941 5.43714 29.4766 4.67533 29.3585C4.56584 28.5979 4.4346 27.6814 4.29359 26.6903C5.54807 26.3527 6.94625 26.154 7.31334 26.0978C7.84116 26.0163 8.37309 25.9508 8.90743 25.8939C9.57186 25.823 10.2398 25.7656 10.9081 25.7081C11.5767 25.6506 12.2452 25.5931 12.9105 25.5222C13.6567 25.4426 14.3986 25.3461 15.1318 25.2139Z" fill="#DC762B"/>
<path d="M6.8607 20.6413C9.01944 20.4111 11.4128 20.7262 13.2047 20.6846C13.4064 20.6799 14.0045 20.6662 14.7108 20.6071C14.7746 21.3003 14.8407 22.0178 14.9066 22.7354C13.9774 22.7159 13.0296 22.7741 12.0773 22.8756C10.1431 23.0819 8.19112 23.4672 6.3434 23.7462C5.9978 23.7983 5.64622 23.8619 5.2987 23.899C4.80803 23.9513 4.32613 23.9508 3.88252 23.7913C3.78278 23.0881 3.68347 22.3861 3.58797 21.7086C4.50539 21.0729 5.64586 20.7706 6.8607 20.6413Z" fill="#DC762B"/>
</svg>
