<svg width="24" height="28" viewBox="0 0 24 28" fill="none" xmlns="http://www.w3.org/2000/svg">
<path d="M11.9997 22.5002C9.36961 22.5002 6.84727 21.4555 4.98753 19.5957C3.1278 17.736 2.08301 15.2136 2.08301 12.5836V11.1669M11.9997 22.5002C14.6297 22.5002 17.1521 21.4555 19.0118 19.5957C20.8716 17.736 21.9163 15.2136 21.9163 12.5836V11.1669M11.9997 22.5002V26.7502M7.74967 5.50024C7.74967 4.37307 8.19744 3.29207 8.99447 2.49504C9.7915 1.69801 10.8725 1.25024 11.9997 1.25024C13.1268 1.25024 14.2078 1.69801 15.0049 2.49504C15.8019 3.29207 16.2497 4.37307 16.2497 5.50024V12.5836C16.2497 13.7107 15.8019 14.7918 15.0049 15.5888C14.2078 16.3858 13.1268 16.8336 11.9997 16.8336C10.8725 16.8336 9.7915 16.3858 8.99447 15.5888C8.19744 14.7918 7.74967 13.7107 7.74967 12.5836V5.50024Z" stroke="#2E2F33" stroke-width="2.5" stroke-linecap="round" stroke-linejoin="round"/>
</svg>
