<svg width="23" height="16" viewBox="0 0 23 16" fill="none" xmlns="http://www.w3.org/2000/svg">
<path d="M20.6522 6.49446H4.7002L7.86583 3.02341C7.99416 2.88209 8.09596 2.71431 8.16541 2.52966C8.23486 2.34501 8.27061 2.1471 8.27061 1.94724C8.27061 1.74737 8.23486 1.54947 8.16541 1.36481C8.09596 1.18016 7.99416 1.01239 7.86583 0.87106C7.7375 0.729735 7.58515 0.617629 7.41748 0.541145C7.24981 0.46466 7.0701 0.425293 6.88861 0.425293C6.70713 0.425293 6.52742 0.46466 6.35975 0.541145C6.19208 0.617629 6.03973 0.729735 5.9114 0.87106L0.405953 6.93403C0.280649 7.07818 0.182425 7.24817 0.116918 7.43422C-0.0207434 7.80325 -0.0207434 8.21716 0.116918 8.58619C0.182425 8.77225 0.280649 8.94223 0.405953 9.08638L5.9114 15.1494C6.03935 15.2914 6.19158 15.4042 6.3593 15.4811C6.52702 15.5581 6.70692 15.5977 6.88861 15.5977C7.07031 15.5977 7.25021 15.5581 7.41793 15.4811C7.58565 15.4042 7.73788 15.2914 7.86583 15.1494C7.99484 15.0084 8.09723 14.8408 8.1671 14.6561C8.23698 14.4714 8.27296 14.2733 8.27296 14.0732C8.27296 13.8731 8.23698 13.675 8.1671 13.4903C8.09723 13.3055 7.99484 13.1379 7.86583 12.997L4.7002 9.52595H20.6522C21.0173 9.52595 21.3673 9.36626 21.6255 9.082C21.8836 8.79774 22.0286 8.41221 22.0286 8.01021C22.0286 7.60821 21.8836 7.22267 21.6255 6.93842C21.3673 6.65416 21.0173 6.49446 20.6522 6.49446Z" fill="black"/>
</svg>
