<svg width="20" height="20" viewBox="0 0 20 20" fill="none" xmlns="http://www.w3.org/2000/svg">
<path fill-rule="evenodd" clip-rule="evenodd" d="M0.833496 15.8334C0.833496 16.7174 1.18469 17.5653 1.80981 18.1904C2.43493 18.8155 3.28277 19.1667 4.16683 19.1667H15.8335C16.7176 19.1667 17.5654 18.8155 18.1905 18.1904C18.8156 17.5653 19.1668 16.7174 19.1668 15.8334V4.16671C19.1668 3.28265 18.8156 2.43481 18.1905 1.80968C17.5654 1.18456 16.7176 0.833374 15.8335 0.833374H4.16683C3.28277 0.833374 2.43493 1.18456 1.80981 1.80968C1.18469 2.43481 0.833496 3.28265 0.833496 4.16671V15.8334ZM4.16683 17.5H15.8335C16.2755 17.5 16.6994 17.3244 17.012 17.0119C17.3246 16.6993 17.5002 16.2754 17.5002 15.8334V4.16671C17.5002 3.72468 17.3246 3.30076 17.012 2.9882C16.6994 2.67564 16.2755 2.50004 15.8335 2.50004H4.16683C3.7248 2.50004 3.30088 2.67564 2.98832 2.9882C2.67576 3.30076 2.50016 3.72468 2.50016 4.16671V15.8334C2.50016 16.2754 2.67576 16.6993 2.98832 17.0119C3.30088 17.3244 3.7248 17.5 4.16683 17.5Z" fill="#F03D3E"/>
</svg>
