<svg width="194" height="20" viewBox="0 0 194 20" fill="none" xmlns="http://www.w3.org/2000/svg">
<path d="M17.2009 0.624268H14.5048L11.1161 8.85328H11.0705L7.68183 0.624268H4.98573L0.858887 16.7589H4.59318L6.78313 7.56202H6.82881L9.80266 14.4541H12.3605L15.3566 7.56202H15.4035L17.5922 16.7589H21.3043L17.2009 0.624268ZM27.7507 5.76462C24.3164 5.76462 21.7808 8.02371 21.7808 11.4346C21.7808 14.8454 24.3164 17.1045 27.7507 17.1045C31.2085 17.1045 33.7441 14.8454 33.7441 11.4346C33.7441 8.02371 31.2085 5.76462 27.7507 5.76462ZM27.7507 8.94463C29.1568 8.94463 30.2406 9.9137 30.2406 11.4346C30.2406 12.9554 29.1568 13.9233 27.7507 13.9233C26.3681 13.9233 25.262 12.9554 25.262 11.4346C25.262 9.9137 26.3681 8.94463 27.7507 8.94463ZM45.9765 6.11028H35.9044V12.2641C35.9044 13.2789 35.5131 13.5554 34.96 13.5554H34.2453V16.7823H35.5131C37.8413 16.7823 39.3844 15.5602 39.3844 12.9098V9.24461H42.4965V16.7589H45.9765V6.11028ZM53.5006 5.76462C50.0663 5.76462 47.5307 8.02371 47.5307 11.4346C47.5307 14.8454 50.0663 17.1045 53.5006 17.1045C56.9584 17.1045 59.494 14.8454 59.494 11.4346C59.494 8.02371 56.9584 5.76462 53.5006 5.76462ZM53.5006 8.94463C54.9067 8.94463 55.9906 9.9137 55.9906 11.4346C55.9906 12.9554 54.9067 13.9233 53.5006 13.9233C52.118 13.9233 51.0119 12.9554 51.0119 11.4346C51.0119 9.9137 52.118 8.94463 53.5006 8.94463ZM71.1598 14.201V6.11028H61.5951V11.2506C61.5951 12.4024 61.3877 13.3011 60.8803 14.201H59.4977V19.7562H62.4012V16.9897H69.6155V19.7549H72.5202V14.1998L71.1598 14.201ZM65.006 11.342V9.1298H67.7255V14.1998H64.3838C64.7985 13.348 65.006 12.4481 65.006 11.342ZM77.8753 1.79949H75.2471V4.91284H77.8753V1.80196V1.79949ZM81.954 1.79949H79.3271V4.91284H81.954V1.80196V1.79949ZM78.6123 5.78684C75.3397 5.78684 72.9881 7.88545 72.9881 11.4802C72.9881 14.8689 75.362 17.1045 78.9345 17.1045C80.49 17.111 82.0159 16.6798 83.3379 15.8602L82.0701 13.232C81.401 13.6702 80.2715 14.1998 78.9814 14.1998C77.5519 14.1998 76.4915 13.6011 76.2619 12.2641H83.8909V11.4802C83.8909 7.63115 81.8158 5.78808 78.6123 5.78808V5.78684ZM78.4975 8.25333C79.6271 8.25333 80.4789 8.96932 80.5258 10.2124H76.2841C76.4458 8.82983 77.3211 8.25333 78.4975 8.25333ZM102.991 16.7589L98.243 10.9507L102.299 6.11028H98.0121L94.8778 10.3285V6.11028H91.604V10.3285L88.4696 6.11028H84.1823L88.24 10.9494L83.491 16.7589H87.9857L91.604 11.8728V16.7589H94.8778V11.8728L98.5195 16.7589H102.991ZM109.693 9.01376H107.319V6.11028H103.839V16.7589H109.693C112.137 16.7589 113.82 15.5367 113.82 12.8863C113.82 10.2124 112.137 9.01376 109.693 9.01376ZM108.956 14.085H107.319V11.6876H108.956C109.831 11.6876 110.316 12.0802 110.316 12.8863C110.316 13.6702 109.831 14.085 108.956 14.085ZM129.981 0.937824H124.219V17.0724H127.791V11.5407H129.981C134.06 11.5407 135.928 9.25819 135.928 6.10164C135.928 3.19691 134.06 0.937824 129.981 0.937824ZM129.681 8.31382H127.791V4.1882H129.681C131.157 4.1882 132.124 4.7647 132.124 6.17077C132.124 7.59905 131.157 8.31382 129.681 8.31382ZM141.804 6.07818C138.37 6.07818 135.834 8.33727 135.834 11.7481C135.834 15.159 138.37 17.4181 141.804 17.4181C145.26 17.4181 147.796 15.159 147.796 11.7481C147.796 8.33727 145.26 6.07818 141.804 6.07818ZM141.804 9.25819C143.21 9.25819 144.293 10.2273 144.293 11.7481C144.293 13.269 143.21 14.2368 141.804 14.2368C140.421 14.2368 139.314 13.269 139.314 11.7481C139.314 10.2273 140.421 9.25819 141.804 9.25819ZM154.677 17.4181C156.031 17.4345 157.363 17.0756 158.526 16.3811L157.098 13.5912C156.452 14.0072 155.784 14.2368 154.839 14.2368C153.456 14.2368 152.234 13.3381 152.234 11.7481C152.234 10.1581 153.456 9.25819 154.839 9.25819C155.784 9.25819 156.452 9.48904 157.098 9.90382L158.526 7.11514C157.363 6.42068 156.031 6.06176 154.677 6.07818C151.266 6.07818 148.754 8.31258 148.754 11.7481C148.754 15.1824 151.266 17.4181 154.677 17.4181ZM164.581 17.4181C165.935 17.4345 167.268 17.0756 168.43 16.3811L167.002 13.5912C166.356 14.0072 165.687 14.2368 164.743 14.2368C163.36 14.2368 162.138 13.3381 162.138 11.7481C162.138 10.1581 163.36 9.25819 164.743 9.25819C165.687 9.25819 166.356 9.48904 167.002 9.90382L168.43 7.11514C167.268 6.42068 165.935 6.06176 164.581 6.07818C161.17 6.07818 158.658 8.31258 158.658 11.7481C158.658 15.1824 161.17 17.4181 164.581 17.4181ZM169.633 17.0724H172.698L177.216 11.3099H177.262V17.0724H180.743V6.42383H177.677L173.16 12.1864H173.114V6.42383H169.633V17.0724ZM182.891 17.0724H185.956L190.473 11.3099H190.52V17.0724H194V6.42383H190.935L186.417 12.1864H186.371V6.42383H182.891V17.0724Z" fill="#8C64D8"/>
</svg>
